<?xml version="1.0" encoding="utf-8"?>
<svg viewBox="0 100 200 200" xmlns="http://www.w3.org/2000/svg">
  <g id="svgg" transform="matrix(1.077507, 0, 0, 1.108084, -115.082779, 21.993692)" style="">
    <path fill="red" id="path0" d="M186.544 89.388 C 170.666 92.262,156.098 100.618,145.024 113.204 L 141.159 117.596 183.140 159.584 C 206.229 182.678,224.872 201.975,224.568 202.466 C 219.293 211.003,183.285 210.787,173.459 202.160 C 173.283 202.006,173.980 200.700,175.007 199.258 C 176.034 197.815,178.075 194.096,179.542 190.993 L 182.210 185.352 173.123 176.233 L 164.035 167.114 161.694 174.624 C 158.407 185.169,152.574 193.614,144.000 200.241 L 140.889 202.646 149.333 210.900 C 173.360 234.384,208.157 238.472,237.038 221.204 C 242.932 217.680,255.661 206.024,256.499 203.384 C 256.991 201.834,250.329 194.779,215.142 159.587 L 173.199 117.636 178.377 115.336 C 192.826 108.917,207.088 109.032,221.111 115.679 C 227.525 118.720,227.492 118.626,224.072 124.209 C 222.645 126.538,220.787 130.180,219.944 132.301 L 218.411 136.157 227.620 145.398 L 236.829 154.639 237.885 149.462 C 239.868 139.744,247.652 127.324,255.034 122.099 C 259.581 118.882,259.757 119.569,252.371 111.660 C 235.051 93.115,210.970 84.967,186.544 89.388 " stroke="none" fill="#000000" fill-rule="evenodd"/>
  </g>
</svg>